<svg width="23" height="26" xmlns="http://www.w3.org/2000/svg"><g fill="none" fill-rule="evenodd"><path d="M21.5983 23.3571H1.4017c-.5532 0-1.0403-.3108-1.2715-.8109-.231-.5-.1507-1.0705.209-1.4885l2.0313-2.359c1.3757-1.5976 2.1334-3.6364 2.1334-5.7408V8.9643C4.504 5.1242 7.6424 2 11.5 2s6.996 3.1242 6.996 6.9643v3.9936c0 2.1044.7578 4.1432 2.1335 5.7407l2.0312 2.3591c.3598.418.44.9884.209 1.4885s-.7182.811-1.2714.811Z" fill="#1468e5"/><path d="M8.7016 23.2143h-7.3c-.5531 0-1.0402-.3108-1.2714-.811-.231-.5-.1507-1.0704.209-1.4885l2.0313-2.359c1.3757-1.5976 2.1334-3.6363 2.1334-5.7408V8.8214c0-3.1976 2.176-5.8988 5.1315-6.7132l-.001-.251C9.6344.8331 10.4714 0 11.5 0c1.0287 0 1.8656.8331 1.8656 1.8571l-.001.2511c2.9554.8144 5.1315 3.5156 5.1315 6.7132v3.9936c0 2.1045.7577 4.1432 2.1334 5.7408l2.0312 2.359c.3598.418.44.9885.209 1.4886-.231.5-.7182.8109-1.2714.8109h-7.2999C14.2984 24.7504 13.0431 26 11.5 26s-2.7984-1.2496-2.7984-2.7857Zm1.451-20.2784c-2.697.6115-4.7159 3.0182-4.7159 5.8855v3.9936c0 2.326-.8374 4.5794-2.358 6.3452l-2.0312 2.359c-.1806.2095-.099.4328-.0696.4963.0291.0632.1464.2702.4238.2702h20.1966c.2774 0 .3947-.207.4238-.2702.0294-.0635.111-.2868-.0696-.4963l-2.0312-2.359c-1.5206-1.7658-2.358-4.0192-2.358-6.3452V8.8214c0-2.8674-2.019-5.2741-4.7161-5.8855a.4906.4906 0 0 1-.05-.008c-.8672-.1887-1.7272-.1887-2.5944 0a.468.468 0 0 1-.0502.008ZM11.5 1.8571c.3084 0 .6204.0216.9326.064l.0002-.064c0-.512-.4183-.9285-.9328-.9285s-.9328.4164-.9328.9285l.0002.064a6.9378 6.9378 0 0 1 .9326-.064ZM9.6344 23.2143c0 1.024.837 1.8571 1.8656 1.8571 1.0287 0 1.8656-.8331 1.8656-1.8571H9.6344ZM6.8359 9.2857c-.2575 0-.4664-.2079-.4664-.4643 0-2.816 2.3015-5.1071 5.1305-5.1071.2576 0 .4664.2079.4664.4643 0 .2564-.2088.4643-.4664.4643-2.3145 0-4.1977 1.8746-4.1977 4.1785 0 .2564-.2088.4643-.4664.4643Z" fill="#FFF"/></g></svg>